<svg width="24" height="24" viewBox="0 0 24 24" fill="none" xmlns="http://www.w3.org/2000/svg">
  <path d="M4 4L20 20" stroke="#8796A8" stroke-width="1.8" stroke-linecap="round"/>
  <path d="M3.5 12C5.7 8.5 8.5 6.75 12 6.75C15.5 6.75 18.3 8.5 20.5 12C19.7 13.27 18.82 14.31 17.86 15.11M14.36 16.82C13.61 17.11 12.82 17.25 12 17.25C8.5 17.25 5.7 15.5 3.5 12Z" stroke="#8796A8" stroke-width="1.8" stroke-linecap="round" stroke-linejoin="round"/>
  <path d="M9.95 10.35C9.6 10.8 9.4 11.37 9.4 12C9.4 13.44 10.56 14.6 12 14.6C12.63 14.6 13.2 14.4 13.65 14.05" stroke="#8796A8" stroke-width="1.8" stroke-linecap="round"/>
</svg>
