<?xml version="1.0" encoding="UTF-8"?>
<svg id="Layer_2" data-name="Layer 2" xmlns="http://www.w3.org/2000/svg" viewBox="0 0 84 83">
  <defs>
    <style>
      .cls-1 {
        fill: #9fb3c1;
      }

      .cls-2 {
        fill: #00c8f0;
      }

      .cls-3 {
        fill: #22303c;
      }
    </style>
  </defs>
  <g id="Icon">
    <g>
      <path class="cls-1" d="M66.99316,30.50635h-12.5v-12.49951c0-1.93018-1.57031-3.50049-3.5-3.50049h-31.98633c-1.93018,0-3.50049,1.57031-3.50049,3.50049v31.98633c0,1.92969,1.57031,3.5,3.50049,3.5h12.49951v12.5c0,1.92969,1.57031,3.5,3.50049,3.5h31.98633c1.92969,0,3.5-1.57031,3.5-3.5v-31.98633c0-1.93018-1.57031-3.50049-3.5-3.50049Z"/>
      <path class="cls-1" d="M79.5,71.19666V12.80334c2.58643-.66705,4.5-3.00854,4.5-5.80334,0-3.31372-2.68628-6-6-6-2.7948,0-5.13629,1.91357-5.80334,4.5H13.80334c-.66705-2.58643-3.00854-4.5-5.80334-4.5-3.31372,0-6,2.68628-6,6,0,2.7948,1.91357,5.13629,4.5,5.80334v58.39331c-2.58643.66705-4.5,3.00854-4.5,5.80334,0,3.31372,2.68628,6,6,6,2.7948,0,5.13629-1.91357,5.80334-4.5h58.39331c.66705,2.58643,3.00854,4.5,5.80334,4.5,3.31372,0,6-2.68628,6-6,0-2.7948-1.91357-5.13629-4.5-5.80334ZM72.19666,75.5H13.80334c-.54321-2.10614-2.1972-3.76013-4.30334-4.30334V12.80334c2.10614-.54321,3.76013-2.1972,4.30334-4.30334h58.39331c.54321,2.10614,2.1972,3.76013,4.30334,4.30334v58.39331c-2.10614.54321-3.76013,2.1972-4.30334,4.30334Z"/>
    </g>
    <g>
      <g>
        <rect class="cls-3" x="15.00654" y="15.00654" width="35.98691" height="35.98691" rx="2.0005" ry="2.0005"/>
        <path class="cls-2" d="M48.99316,52.49316h-31.98633c-1.93018,0-3.50049-1.57031-3.50049-3.5v-31.98633c0-1.93018,1.57031-3.50049,3.50049-3.50049h31.98633c1.92969,0,3.5,1.57031,3.5,3.50049v31.98633c0,1.92969-1.57031,3.5-3.5,3.5ZM17.00684,16.50635c-.27588,0-.50049.22461-.50049.50049v31.98633c0,.27539.22461.5.50049.5h31.98633c.27539,0,.5-.22461.5-.5v-31.98633c0-.27588-.22461-.50049-.5-.50049h-31.98633Z"/>
      </g>
      <g>
        <rect class="cls-3" x="31.00654" y="31.00654" width="35.98691" height="35.98691" rx="2.0005" ry="2.0005"/>
        <path class="cls-2" d="M64.99316,68.49316h-31.98633c-1.93018,0-3.50049-1.57031-3.50049-3.5v-31.98633c0-1.93018,1.57031-3.50049,3.50049-3.50049h31.98633c1.92969,0,3.5,1.57031,3.5,3.50049v31.98633c0,1.92969-1.57031,3.5-3.5,3.5ZM33.00684,32.50635c-.27588,0-.50049.22461-.50049.50049v31.98633c0,.27539.22461.5.50049.5h31.98633c.27539,0,.5-.22461.5-.5v-31.98633c0-.27588-.22461-.50049-.5-.50049h-31.98633Z"/>
      </g>
    </g>
    <path class="cls-2" d="M77.5,77.5H4.5V4.5h73v73ZM7.5,74.5h67V7.5H7.5v67Z"/>
    <circle class="cls-2" cx="6" cy="76" r="6"/>
    <circle class="cls-2" cx="6" cy="6" r="6"/>
    <circle class="cls-2" cx="76" cy="6" r="6"/>
    <circle class="cls-2" cx="76" cy="76" r="6"/>
  </g>
</svg>